<?xml version="1.0" encoding="UTF-8"?><!DOCTYPE svg PUBLIC "-//W3C//DTD SVG 1.1//EN" "http://www.w3.org/Graphics/SVG/1.1/DTD/svg11.dtd"><svg xmlns="http://www.w3.org/2000/svg" xmlns:xlink="http://www.w3.org/1999/xlink"><symbol id="i-github"><path d="M148.776 208.86c-3.6-13.125 1.273-42.844 8.804-60.96 17.053 1.815 38.03 11.436 63.162 28.806 22.506-4.65 45.84-4.357 69.855 0 22.864-15.05 44.252-25.698 63.117-28.807 7.224 18.127 13.033 50.99 8.906 60.961h.034c43.802 47.683 17.37 144.22-53.506 152.112-23.13 4.1-88.258 4.3-106.877 0-80.504-12.871-90.96-114.946-53.495-152.112zm106.928 142.383c30.667 0 54.397-3.659 70.1-11.022 15.656-7.386 23.62-22.578 23.62-45.474-.223-8.682-1.415-17.133-7.808-25.443-20.305-26.39-45.45-15.062-85.328-15.038-55.019-2.597-87.728-10.193-93.67 40.447 0 22.907 7.76 38.088 23.258 45.451 15.487 7.409 39.149 11.079 69.828 11.079zm-53.11-31.054c-12.018-9.557-12.018-33.578 0-43.134 12.018-9.557 27.122 2.454 27.122 21.567s-15.104 31.123-27.122 21.567zm115.25-21.567c0-19.113-15.104-31.124-27.122-21.567-12.018 9.556-12.018 33.577 0 43.134 12.018 9.556 27.122-2.454 27.122-21.567zM156.22 428.316c-132.443-76.354-132.443-268.278 0-344.632C288.66 7.329 455.113 103.29 455.113 256S288.661 504.671 156.219 428.316zM512 256C512 59.662 297.992-63.716 127.711 34.453c-170.281 98.17-170.281 344.925 0 443.094C297.993 575.716 512 452.338 512 256z" fill="currentColor"/></symbol><symbol id="i-gulp"><path d="M1.421 131.725c16.51 14.178 146.831 18.326 207.09 6.676 30.024-5.962 37.52-16.957-40.394-23.397-3.953 0-4.86-.308-4.86-1.815 0-.907 9.624-39.39 9.624-39.39 13.428-14.201 36.917-38.94 57.018-61.57 1.02-4.554-11.034-14.275-14.583-11.845L153.534 65.1l-12.152 47.393c-87.996-.627-151.828 7.671-139.96 19.233zm176.45 366.381l4.667-82.116 13.156-23.705c-54.115 15.778-107.69 15.288-164.087-.292L45.898 416.8l5.98 81.517c14.486 18.113 111.108 18.446 125.993-.21zm24.253-121.968c1.38-6.84 10.438-87.65 10.243-87.763-.194-.194-3.45 2.22-7.194 5.363-8.101 6.887-13.135 9.65-19.114 9.748-8.791.497-16.368-5.248-1.447-21.997 8.603-10.63 10.03-12.654 10.03-14.793-.55-5.735-14.746 2.094-22.669 16.316-3.435 5.363-12.346 25.714-16.802 38.385-3.451 9.819-6.676 14.372-10.03 14.372-1.928 0-5.168-2.43-5.168-3.856 0-2.642 3.24-10.84 9.219-23.9 3.856-8.296 6.983-15.295 6.983-15.49-5.683 3.258-11.18 10.088-20.464 10.84-3.844.311-7.907-2.43-7.907-4.65 0-1.831.195-1.928-6.173 1.62-9.625 5.266-15.085 3.338-15.085-5.477v-4.05c-8.338 9.903-20.297 16.25-27.74 10.434-3.639-2.843-3.548-9.527.308-21.063 6.984-20.66 12.347-28.76 17.11-25.715 2.933 1.831 2.431 4.764-2.22 14.372-8.004 16.511-8.506 24.305-1.409 22.28 6.79-1.929 14.89-12.558 20.562-26.735 1.523-3.954 3.435-7.907 4.358-8.912 2.22-2.528 5.574-1.83 6.692 1.41.713 2.122 0 4.958-3.953 14.68-3.241 7.907-4.959 13.578-4.959 16.608-.097 4.358 0 4.553 2.836 4.358 3.646-.308 9.511-4.148 10.321-6.886 3.144-10.224 26.524-67.34 28.355-69.365 2.007-3.727 7.894-1.372 8.312 1.718.1 5.196-23.456 57.05-27.123 71.39-2.789 10.357 26.073-12.882 26.832-19.654 3.856-11.747 6.675-15.085 10.84-12.865 3.046 1.312.818 5.84 1.523 8.004 5.692-3.529 14.318-15.749 25.422-9.106 11.933 7.12-11.39 30.193-14.988 36.554 2.787 3.959 17.571-9.74 25.326-16.722 4.427-21.624 10.062-82.34 15.797-137.012C191.015 152.996 52.475 155.554.88 138.34c0 3.357 12.533 120.505 13.212 122.505.194.81 1.215-.712 2.22-3.645 9.008-25.212 26.929-46.584 42.127-50.132 7.389-1.718 12.963.097 18.942 6.076 6.578 6.578 7.793 13.675 2.738 16.397-2.528 1.313-4.958-.502-8.199-6.384-6.983-12.46-19.946-5.881-33.929 17.419-14.777 24.498-18.633 51.655-7.388 51.655 4.148 0 14.177-7.907 21.16-16.608 4.764-6.077 6.579-9.414 9.22-17.224 1.718-5.266 3.743-10.127 4.553-10.726 1.512-1.345 6.897-3.701 7.389 4.26.176 2.553-.096 5.516-1.32 8.724-7.49 19.63-12.05 42.828-18.221 55.586-2.22 3.144-5.363 2.933-6.79-.307-1.02-2.123-.712-4.36 2.124-13.87 1.83-6.27 3.645-12.25 3.953-13.368.308-1.312-2.025.405-6.384 4.456-10.127 9.414-20.06 13.368-25.925 10.224-1.717-.907-1.928-.713-1.928 1.718 0 7.696 7.292 76.77 8.199 77.871 59.233 27.77 144.733 12.253 167.524 3.91 7.419-2.716 7.967-10.74 7.967-10.74z" fill="currentColor"/></symbol><symbol id="i-postcss"><path d="M461.168 91.233c-4.134-5.256-8.618-10.212-12.672-15.531-4.18-5.487-8.373-10.749-13.635-15.265-10.312-8.848-22.094-16.678-33.706-23.713-23.459-14.213-51.032-24.346-77.81-30.068-14.221-3.039-28.718-4.111-43.207-5.004-14.808-.913-29.575-1.665-44.373-.216-27.994 2.743-57.456 5.248-84.03 15.026-25.22 9.279-48.864 24.016-69.307 41.423-10.539 8.974-18.817 20.091-27.522 30.775-9.02 11.07-17.418 22.441-24.471 34.877C15.248 150.314 2.316 180.078.466 211.225c-.457 7.694-.018 15.353.805 23.006.831 7.72 1.574 16.167 4.075 23.55.357 1.053 1.102 2.08 1.069 3.244-.03 1.063-1.137 1.649-1.003 2.776.141 1.183 1.23 1.38 1.552 2.394.46 1.447.021 2.865.06 4.353.091 3.355 1.331 6.608 2.113 9.837.884 3.651.435 6.024-.736 9.536 1.418-.851 2.788-1.793 4.266-2.543 1.115 4.49 2.553 8.892 3.622 13.394 1.169 4.921 1.952 7.118 5.601 10.767 0-5.711-1.527-10.477-2.301-16.07.706.173 1.413.34 2.122.499-2.105 2.106 1.998 7.542 2.8 9.546 1.368-1.375 2.497-2.209 4.508-2.02-.716-1.788-1.056-3.716-1.813-5.491-.585-1.372-1.837-2.804-2.075-3.782-.224-.921.275-1.644-.238-2.757-.404-.877-1.428-1.322-1.86-2.161-1.186-2.308.688-4.698.323-7.26-.814-5.733-2.755-11.298-3.434-17.085-.593-5.055.654-11.297-3.323-15.25-2.47 2.008-1.907 6.993-5.521 5.591-2.803-1.087-2.031-5.374.743-4.648.034-2.566-1.049-3.5.227-5.722 1.178-2.053 2.904-3.476 3.889-5.773 2.116-4.937 2.497-10.736 2.863-16.027.837-12.095 3.248-22.915 7.22-34.396 7.552-21.836 18.545-42.529 30.525-62.231 22.394-36.83 55.947-68.715 95.681-86.264 12.275-5.422 25.196-9.562 38.221-12.762 12.825-3.151 26.056-2.866 39.118-4.178-10.919 15.41-21.471 31.248-32.947 46.242-11.026 14.406-22.281 28.625-33.226 43.097-11.348 15.005-21.353 30.928-31.898 46.496-5.179 7.645-10.404 15.258-15.735 22.798-2.582 3.652-5.297 6.931-8.152 10.3-1.383 1.633-1.379 3.046-2.061 4.985-.702 1.999-2.011 3.77-3.082 5.578l-1.269-2.38c-2.528 4.042-4.772 8.24-7.257 12.3-1.374 2.243-6.037 6.616-1.812 8.137a52.93 52.93 0 0 0-2.599 2.156c1.247 1.376 3.059 2.075 4.222 3.542a28.5 28.5 0 0 0 .961-1.281c.42 3.207 1.642-.139 2.403-1.153.922-1.23 1.828-2.487 2.895-3.598 2.148-2.238 4.731-4.013 6.95-6.189 4.55-4.462 8.608-9.478 12.644-14.403 8.973-10.95 16.878-22.743 26.191-33.419-.972 11.053-1.319 22.15-2.24 33.209-.438 5.252.121 10.425-.459 15.709-.593 5.392-1.072 10.798-1.007 16.227.131 11.057.732 21.964 0 33.021-.294 4.449.559 8.659.565 13.055.005 2.797-.762 6.649 2.802 6.649 0 7.078-2.47 13.522-1.925 20.728.249 3.292-.332 6.387-.345 9.651-.015 3.762 3.033 6.525 2.946 10.07-2.209 0-3.633-.686-4.647 1.344-.871 1.747.102 5.301.213 7.224.198 3.443.132 6.943.017 10.391-.068 2.031.49 7.757-1.071 9.49-1.614 1.793-4.68 1.146-6.98 1.212-4.217.12-8.436.105-12.654.097-8.108-.015-16.195.322-24.299.416-16.396.191-32.757-.209-49.164.543-6.864.315-14.638.695-21.087 3.321-2.854 1.162-2.949 2.341-4.124 4.958-.265.591-1.57.537-1.713 1.334-.247 1.37 1.288 2.967 1.639 4.23.777-.342 1.53-.732 2.258-1.17a4021.6 4021.6 0 0 0-1.654 2.759c1.837-.69 3.68-1.368 5.512-2.07 0 1.197 6.598.07 8.235.219 2.634.24 5.199 1.019 7.782 1.541 7.127 1.438 14.532 1.714 21.776 2.096 13.704.721 27.375.627 41.092.591 14.346-.038 28.667.493 43.016.164 13.735-.314 27.459-.973 41.19-1.425 28.123-.925 56.238-.71 84.333-2.489 28.257-1.789 56.425-3.493 84.728-4.343 15.601-.469 31.196-1.043 46.769-2.092 15.327-1.033 31.536-2.526 46.862-1.283l-2.618 2.183c4.472.075-2.599 6.602-3.079 7.342-.825 1.272-.95 3.012-1.783 4.278-.887 1.348-1.759 1.328-2.906 2.379-.082.075-.702 1.43-.856 1.703-.779 1.384-.731 2.785-1.563 4.154-1.866 3.074-2.666 3.661-6.4 4.902.865.287 1.729.575 2.594.861-1.058.527-.127 1.738-.652 3.416-.675 2.156-2.43 4.204-3.776 5.973-3.327 4.37-7.081 8.034-11.217 11.647-6.544 5.718-12.153 12.188-19.126 17.459-6.927 5.236-14.171 10.264-21.553 14.839-7.216 4.472-14.81 8.289-21.968 12.861-7.573 4.836-15.625 7.408-23.89 10.779-8.05 3.283-15.735 7.312-24.438 8.573-9.2 1.334-18.465 2.237-27.68 3.462-9.38 1.247-18.428 2.656-27.909 2.724-3.8.027-7.524.399-11.29-.327-4.644-.896-8.788-1.737-13.531-2.021-8.591-.514-17.293-1.769-25.476-4.49-3.294-1.096-5.212-1.127-8.503-1.361-3.971-.283-7.505-2.416-11.433-2.856-3.273-.367-3.502-1.514-6.147-2.834-3.568-1.78-7.133-2.798-10.606-5.036-3.286-2.118-6.565-4.304-10.218-5.748-3.727-1.474-7.743-2.098-11.448-3.63-3.318-1.372-6.131-3.598-9.1-5.571-3.277-2.178-6.291-2.953-9.834-4.303-7.47-2.844-14.301-8.701-20.128-13.973-5.293-4.788-13.948-6.175-16.714-13.046-1.018-2.529-2.691-2.945-4.727-4.79-3.079-2.79-6.457-5.485-9.9-7.809-6.668-4.501-10.706-10.832-15.234-17.325-1.681-2.411-3.925-6.611-6.546-8.161-2.549-1.507-3.517 1.983-6.526 1.983l11.751 18.605c-1.166-.881-2.786-.638-3.776-1.834-.588-.709-.388-2.188-.938-2.788-1.587-1.729-5.123-.88-7.201-1.175 2.767 4.346 5.453 9.562 7.484 13.488 2.236 4.32 7.058 7.094 9.718 11.14-3.857.843 1.338 6.43 2.421 7.656 1.302 1.476 2.864 2.673 4.18 4.115 1.895 2.077 1.474 3.267 1.474 5.95 2.143-2.149 2.558-1.105 4.425.421.362.296 1.968 1.36 2.413 1.555a5.682 5.682 0 0 0 1.811.909 17.655 17.655 0 0 0 2.123-.465c.178.049 2.782 1.58 3.221 1.846.22.134.188 1.141.853 1.503 1.762.959 2.775.624 4.347 2.073 5.683 5.241 10.879 10.932 17.245 15.546 14.251 10.327 30.844 19.459 46.896 26.673 7.981 3.587 16.208 6.197 24.696 8.264 9.214 2.245 18.343 5.317 27.653 7.059 7.174 1.342 14.731 3.387 22.029 3.623 4.406.143 8.794-.183 13.251.108 1.198.078 10.056.053 5.499 2.108 10.249 1.991 20.156 1.287 30.512.824 4.628-.207 9.596-2.815 14.002-2.641.697.027 1.31.895 2.354.745.84-.12 1.372-.986 2.101-1.31 1.933-.86 3.56-.514 5.625-.664 8.624-.627 16.235-3.616 25.315-5.324 1.353-.255 3.702-.195 4.887-1.053 1.444-1.043.788-1.829 1.675-3.138 1.635-2.413 6.879-6.115 9.844-5.871l-1.709 1.709c1.859-.11 4.802.272 6.457-.791 1.522-.978 1.411-2.7 2.786-3.714 1.187-.875 3.476-.741 4.897-1.132 2.858-.787 5.746-1.947 8.383-3.294 2.333-1.191 4.334-1.755 6.654-2.563 1.632-.568 2.856-1.523 4.543-2.101a88.628 88.628 0 0 0 2.809-1.012l.859-.943a2.768 2.768 0 0 0 1.899.24c2.889-.688 5.179-2.735 7.592-4.406h-4.124c1.082-.599 2.641-2.264 3.898-2.293.815-.018 1.584 1.209 2.515 1.428 2.172.51 9.479-2.579 7.603-5.618 1.678-.914 2.276.532 3.538.144.684-.21 2.056-1.346 2.562-1.948 1.677-1.993.158-3.13 1.652-5.188 1.607-2.214 4.711-3.301 6.822-4.954 1.229-.962 2.405-2.675 3.978-3.094.725-.193 2.865-1.773 3.26-2.469.62-1.094 1.695-1.861 2.618-2.681 3.074-2.729 6.339-5.217 9.325-8.049 6.235-5.913 12.007-12.426 17.404-19.105 10.08-12.474 18.502-26.483 25.849-40.718 2.037-3.947 3.233-10.327 8.022-11.644 2.467-.678 5.231-.24 7.753-.361 3.392-.163 6.271-1.138 9.305-2.661-3.481-5.438-12.709-14.527-10.322-21.465 3.182-9.245 7.298-18.388 9.481-27.974 5.031-22.091 7.439-45.353 6.853-67.998-.686-27.862-1.401-56.278-10.409-82.94-8.431-24.956-21.175-48.545-37.46-69.249l.007.009zm-283.114 33.06c-.143.192-.707.919 0 0 1.046-1.396 2.087-1.978 2.889-3.392 1.339-2.361 2.24-3.965 4.316-5.584 1.506-1.174 2.116-2.058 3.243-3.631.933-1.302 2.037-2.504 3.047-3.745.711-.875 1.823-3.77 2.148-1.486 2.107-3.008 5.112-6.505 5.891-9.747a2.86 2.86 0 0 1-.988-.872 3.09 3.09 0 0 1 1.093-1.608c.5-.935 1.744-2.51 2.585-3.154.895-.684 1.623-.279 2.744-1.058 1.226-.85 2.091-2.788 3.09-3.92.964-1.093 2.647-2.24 3.151-3.659.321-.9-.391-2.552.052-3.172.597 1.14 1.15 2.303 1.726 3.454.741-1.852 1.796-3.684 2.447-5.548.749-2.142-.099-1.981.245-3.566.416-1.918 3.056-4.313 4.18-5.933 1.761-2.54 3.53-5.075 5.273-7.627 6.388-9.355 12.135-19.367 20.27-27.367 28.671 36.125 54.341 74.117 79.945 112.438-14.041 0-27.884-.81-41.916.263-13.957 1.067-27.875 2.48-41.873 2.922-27.606.872-55.294 3.177-82.918 2.814 6.512-8.898 12.635-18.079 19.36-26.822zm170.558 70.034l.712 29.356c-2.776-7.851-7.459-14.732-12.005-21.637-4.86-7.357-10.668-14.359-17.716-19.722-6.95-5.288-15.06-8.863-23.086-12.172 0 0 37.591-.934 42.202-.923 3.446.008 4.866 1.274 6.798 4.054 4.349 6.256 2.923 13.732 3.097 21.044h-.002zm-179.37-18.569c13.725-.625 27.457-1.137 41.169-2.02-8.538 5.173-15.702 12.173-22.419 19.483-6.852 7.457-14.094 14.698-19.667 23.204.725-13.541 1.387-27.107.917-40.668v.001zm12.873 179.221c-2.442.161-10.06 1.527-11.725-.443-1.76-2.081-.196-8.301-.201-11.522-.91-13.862-2.52-27.7-2.458-41.609 3.175 7.381 6.369 13.911 11.088 20.419 2.227 3.072 4.209 6.462 6.707 9.33 1.623 1.863 6.887 3.171 7.166 5.7.201 1.822-2.119 2.154-.736 4.255 1.061 1.612 4.341 2.342 5.949 3.188 2.758 1.451 5.079 3.533 7.776 5.079 3.773 2.164 8.14 2.887 12.047 4.769-11.852.224-23.785.053-35.614.834h.001zm32.959-20.232c.425.196 1.313.567.774.33l-.071-.031c-6.665-2.903-12.973-5.762-18.212-10.93-2.564-2.529-5.549-4.982-7.838-7.76-2.189-2.656-3.633-5.844-5.352-8.8-3.362-5.781-8.782-11.198-11.037-17.424-.633-1.748-2.161-5.267-4.316-2.211-1.43 2.026.773 5.262 1.311 7.236-.885.005-1.981.464-2.536 1.17.197-10.349-.445-20.696-.183-31.045 3.591 2.493 5.84-2.957 6.644-5.563.568-1.841.615-3.817 1.245-5.629.327-.94 2.207-3.252 1.988-4.194-.547-2.35-2.782-.846-1.696-3.85.733-2.028 2.689-3.393 3.446-5.652.601-1.794 1.759-7.662 3.407-8.717l-.144 1.435c3.553-2.09 5.501-3.555 6.39-7.663.806-3.727 3.448-5.772 5.602-8.801 2.357-3.315 4.248-5.817 7.808-7.898 3.101-1.813 5.587-5.869 8.867-7.018 1.951-.683 3.221-.778 5.357-2.125 1.164-.734 2.833-1.733 3.449-3.03.476-1.002-.048-1.595.671-2.479 1.769-2.174 7.683-3.474 10.236-4.671 3.735-1.752 7.567-4.136 11.841-4.044-2.587 4.879 6.184 1.819 8.373 2.549 0-4.645 1-5.504 5.757-5.576 5.216-.079 10.591-.249 15.755.591 10.23 1.663 18.807 8.153 27.098 13.923 8.623 6.001 16.796 11.484 22.781 20.379 2.598 3.861 4.679 8.023 5.908 12.522 1.498 5.483 3.505 12 3.078 17.696-.373 4.971-1.593 9.849-1.976 14.843-.479 6.252-1.856 11.576-4.726 17.181-.615 1.202-2.358 3.166-1.975 4.592.358 1.333 1.646 1.029 1.717 2.399.065 1.232-1.76 4.325-2.198 5.428a120.568 120.568 0 0 1-2.757 6.416c-8.006 17.215-20.479 31.912-38.993 37.872-19.687 6.337-46.499 8.584-65.493-1.453v.002zm86.771 15.923c2.631-1.538 5.142-3.274 7.55-5.139 1.665-1.289 3.656-3.853 5.553-4.784a6.499 6.499 0 0 0-.089.084c-.558.395-1.176 1.132-1.572 1.527.144-.144.303-.281.455-.421.164-.138.569-.498 1.367-1.227 3.13-3.123 7.062-5.281 10.306-8.276 3.017-2.784 5.672-6.01 8.101-9.31 5.327-7.238 9.156-15.378 13.137-23.394.204 16.488 2.072 32.897 4.224 49.228l-49.034 1.712h.002zm153.899-3.874c-8.78-.38-17.677.041-26.468.048-10.322.007-20.601.267-30.899.977-4.608.318-9.211.39-13.827.536-1.812.058-4.107.55-5.896.284-1.958-.292-2.709-1.428-4.229-2.571l-.535 1.063c-1.349-1.425-1.449-4.051-1.272-5.873.066-.68.502-1.659.776-2.572 1.437.295 2.875-4.413 2.779-5.217-.154-1.288-.646-2.159-1.389-3.168-.723-.981-.872-.01-1.355-1.331-.346-.943.12-3.368.103-4.308 1.337 1.004 1.301-1.38 2.418-2.202 1.068-.786 2.421-.705 3.702-.705-1.116-1.954-1.127-4.04-1.527-6.182-.666-3.566-.853-3.245 2.682-4.43-2.087-1.044-2.886-.889-3.578-3.057-.534-1.673-.014-3.971-.123-5.743-.115-1.842-.214-4.046-.995-5.753-.926-2.026-2.966-2.079-2.873-3.981 1.229.486 2.454.982 3.682 1.474-.781-2.731-2.29-5.221-2.978-7.976-.68-2.727-.304-5.425-.304-8.204.628.149 1.254.304 1.878.466-.149-1.801.146-2.788-.466-4.46-.298-.815-1.017-1.505-1.322-2.394-.861-2.509-.26-5.582-.26-8.168.57.224 1.139.452 1.707.683-.44-1.861 1.596-3.078 2.695-4.183-2.103-.024-2.103.313-2.721-1.207-.38-.938-.034-2.695-.106-3.72-.195-2.786-1.335-4.721-1.27-7.295.26-10.229.517-20.458.772-30.688 20.815 27.468 37.192 58.072 57.945 85.59 5.567 7.382 27.187 35.754 28.469 37.446.768 1.014 3.501 3.534 3.534 5.043.077 3.43-6.611 1.87-8.75 1.778h.001zm25.948-119.423c-.717-.704-1.43-1.413-2.139-2.126-.426 1.282-.464 4.624-2.659 3.887-.258 3.587.858 7.118.481 10.707.6-.429 1.214-.838 1.841-1.225-.505 2.607 2.346 5.107 1.99 7.692-.394 2.862-2.361.895-3.327 2.024-1.115 1.304-.572 8.224.086 9.483.613 1.171 1.695 1.502 2.146 2.938.586 1.868 0 4.175-.358 6.019-1.565 8.072-1.035 16-1.743 24.127-.414 4.755-1.216 1.988-4.194 2.012-3.473.029-1.241 5.029-.673 7.005-2.661-.228-2.099 3.303-2.178 5.043-.14 3.144-1.709 5.548-2.072 8.531-9.752-14.223-18.37-29.189-28.315-43.282-10.295-14.588-20.24-29.413-30.475-44.042-10.138-14.488-19.243-29.651-29.247-44.227-1.921-2.799-4.949-5.639-6.082-8.838-1.139-3.214-.785-7.929-.816-11.286-.034-3.631.18-7.251.059-10.879-.132-3.956.527-4.829 3.226-7.527-6.556 0-13.112.014-19.668.014-4.275 0-7.288-4.613-9.428-7.724-3.231-4.701-6.397-9.447-9.594-14.172-7.884-11.653-16.414-22.877-24.873-34.115-15.922-21.151-30.748-43.197-47.967-63.343 10.932 1.37 21.952 1.416 32.875 3.02 10.751 1.578 21.457 3.724 31.913 6.69 19.745 5.599 38.693 13.901 56.877 23.35 4.015 2.087 8.152 4.044 12.034 6.374 4.398 2.641 7.738 6.288 11.24 9.981 7.385 7.786 14.353 15.891 21.3 24.064 11.797 13.878 24.83 27.472 31.88 44.556 4.368 10.585 7.435 22.123 9.88 33.293 1.264 5.778 1.161 11.648 2.296 17.363a289.98 289.98 0 0 1 1.283 6.858c.119.683.976 2.216.993 2.177.568 1.296.747 3.32 2.171 1.897 1.51 7.772 1.541 15.799 1.233 23.681h.004zM69.004 242.832l1.302-.905c-2.847.822-2.773-1.709-1.983-3.513 1.118-2.549 3.858-4.225 5.358-6.548.768.81 1.606 1.543 2.567 2.094 1.879-2.362 3.774-4.71 5.745-6.996 1.998 2.734 4.886 1.493 2.639 5.345-1.376 2.358-3.277 4.286-5.056 6.32.502 1.111 1.582 1.716 1.416 3.262-.302 2.819-5.075 7.95-7.044 10.042-1.754 1.863-3.415 1.004-4.672 3.138-.703 1.192-.285 2.291-1.427 3.522-.752.81-1.948 1.178-2.746 1.954-1.507 1.469-2.061 4.02-3.873 5.138-2.239 1.382-4.404 1.051-4.323-1.56-1.48.232-2.909.714-4.358 1.077 1.577-2.562 3.041-5.411 4.974-7.728 1.392-1.669 3.245-2.868 4.672-4.497 1.511-1.726 2.147-3.881 3.579-5.637 1.305-1.599 2.373-2.588 3.23-4.51v.002z" fill="currentColor"/></symbol><symbol id="i-pug"><path d="M426.01 25.497c26.77 13.198 87.919 79.957 85.943 84.363-2.005 4.396-31.186 28.776-39.978 38.368-19.094 43.821-36.314 75.199-42.498 40.255-7.03 42.025-22.079 38.347-27.956 58.876-8.576 42.24-33.25 43.681-44.453 51.566-10.274 10.273-24.993 4.346-36.353 10.175-28.855 10.766-97.02 12.668-124.272.395-14.578-6.284-21.876 3.493-63.025-24.697-21.922-21.798-15.725-31.713-23.313-46.36-12.528-21.604-16.965-7.505-26.623-55.774-2.925 38.97-23.955 18.12-43.337-34.663 0 0-38.121-33.795-40.097-38.141-2.005-4.406 59.143-71.165 85.943-84.363 75.982-34.45 256.267-33.54 340.02 0zM296.16 141.58c41.049 13.903 79.84 58.066 73.434 98.587 0 21.042-1.877 35.267-4.94 44.849 35.05-22.999 19.693-30.393 33.637-52.505 13.16-22.457 15.802-14.236 22.602-44.63-4.07-30.427-8.002-84.344-12.862-100.446-4.248-13.83-24.795-42.576-38.052-60.17-64.646-24.952-192.646-16.952-225.487-.988-13.237 17.485-34.674 47.22-39.02 61.445-4.594 15.252-8.767 67.692-12.62 98.71 3.176 29.505 25.432 42.551 28.751 58.17 3.553 25.145 15.033 33.7 30.96 42.29-3.557-9.779-5.631-24.597-5.631-47.317-6.64-46.89 38.92-86.79 75.82-98.292 10.203-27.082 65.395-24.58 73.407.297zm7.149 113.005c0-28.648-23.48-52.46-41.064-53.892l1.036-42.132c33.97-2.16 30.027-27.032-4.277-28.776-26.36.228-44.863 24.493-4.417 28.726l-.031 42.034c-17.584 0-40.737 24.283-40.737 53.464 2.74-29.282 25.549-44.429 46.39-43.799 20.303.614 38.627 16.252 43.1 44.375zM166.235 113.396c0-7.046-7.68-11.473-13.79-7.95-6.112 3.523-6.112 12.378 0 15.901 6.11 3.523 13.79-.905 13.79-7.95zm-35.998 46.043c-23.392-13.486-23.392-47.383 0-60.87 23.393-13.485 52.792 3.464 52.792 30.435 0 26.972-29.4 43.921-52.792 30.435zm220.212 0c-23.392-13.486-23.392-47.384 0-60.87 23.393-13.485 52.792 3.464 52.792 30.435 0 26.972-29.4 43.921-52.792 30.435zm17.624-46.043c0-7.046-7.68-11.473-13.79-7.95-6.112 3.523-6.112 12.378 0 15.901 6.11 3.523 13.79-.905 13.79-7.95z" fill="currentColor"/></symbol></svg>