<svg width="30" height="30" viewBox="0 0 30 30" xmlns="http://www.w3.org/2000/svg"><title>Facebook</title><g fill="currentColor" fill-rule="evenodd"><path d="M15 1.25c7.583 0 13.75 6.166 13.75 13.75S22.583 28.75 15 28.75 1.25 22.584 1.25 15 7.417 1.25 15 1.25zM15 0C6.708 0 0 6.709 0 15s6.708 15 15 15 15-6.709 15-15S23.292 0 15 0z"/><path d="M20.708 8.583H9.292a.73.73 0 0 0-.709.709v11.416a.73.73 0 0 0 .709.709h6.125v-4.958H13.75v-1.917h1.667v-1.416c0-1.668 1-2.542 2.5-2.542.708 0 1.333.041 1.5.083v1.75h-1.042c-.792 0-.958.374-.958.958v1.25h1.916l-.25 1.916h-1.666V21.5h3.25a.73.73 0 0 0 .708-.708v-11.5c.042-.376-.292-.709-.667-.709z"/></g></svg>