<svg width="30" height="30" viewBox="0 0 30 30" xmlns="http://www.w3.org/2000/svg"><title>Google</title><g fill="currentColor" fill-rule="evenodd"><path d="M15 1.25c7.583 0 13.75 6.166 13.75 13.75S22.583 28.75 15 28.75 1.25 22.584 1.25 15 7.417 1.25 15 1.25zM15 0C6.708 0 0 6.709 0 15s6.708 15 15 15 15-6.709 15-15S23.292 0 15 0z"/><path d="M13.625 16.126c-1.125 0-2.042.707-2.042 1.54 0 .834.792 1.542 1.917 1.542 1.417 0 2.125-.666 2.125-1.5-.042-.834-.792-1.582-2-1.582zm1.167-3.584c-.125-.959-.75-1.792-1.5-1.792-.75-.042-1.25.708-1.125 1.708.125.958.833 1.667 1.583 1.667s1.167-.625 1.042-1.583z"/><path d="M20.625 8.583H9.375a.791.791 0 0 0-.792.791v11.21c0 .457.375.792.792.792h11.208a.792.792 0 0 0 .792-.793V9.374c.042-.415-.333-.79-.75-.79zm-7.167 11.125c-1.625 0-2.958-.708-2.958-1.875 0-.916.583-2.083 3.25-2.083-.375-.333-.5-.75-.25-1.25-1.542 0-2.375-.916-2.375-2.083 0-1.126.833-2.167 2.583-2.167h2.75l-.625.624h-.708c.5.292.792.918.792 1.584 0 .625-.334 1.126-.834 1.5-.833.666-.625 1.042.25 1.667.875.667 1.167 1.167 1.167 1.958.042.96-.833 2.125-3.042 2.125zm6.084-4.875h-1.084v1.084h-.666v-1.084H16.75v-.667h1.042v-1.04h.666v1.04h1.084v.667z"/></g></svg>