<svg width="30" height="30" viewBox="0 0 30 30" xmlns="http://www.w3.org/2000/svg"><title>LinkedIn</title><g fill="currentColor" fill-rule="evenodd"><path d="M15 1.25c7.583 0 13.75 6.166 13.75 13.75S22.583 28.75 15 28.75 1.25 22.584 1.25 15 7.417 1.25 15 1.25zM15 0C6.708 0 0 6.709 0 15s6.708 15 15 15 15-6.709 15-15S23.292 0 15 0z"/><path d="M20.458 8.542H9.542c-.542 0-.959.417-.959.916V20.5c0 .5.417.917.959.917h10.916c.542 0 .959-.417.959-.917V9.458c0-.5-.417-.916-.959-.916zm-8 10.791h-1.916V13.5h1.916v5.833zM11.5 12.71c-.667 0-1.083-.459-1.083-1 0-.584.416-1.001 1.083-1.001s1.083.417 1.083 1c0 .584-.416 1-1.083 1zm7.958 6.624h-1.916V16.25c0-.792-.292-1.334-1-1.334-.542 0-.834.376-1 .709a1.499 1.499 0 0 0-.084.458v3.25h-1.916s.041-5.29 0-5.833h1.916v.834c.25-.417.709-.96 1.75-.96 1.292 0 2.209.835 2.209 2.626v3.333h.041z"/></g></svg>