<svg width="512" height="318" viewBox="0 0 512 318" xmlns="http://www.w3.org/2000/svg"><title>pug</title><path d="M426.01 25.497c26.77 13.198 87.919 79.957 85.943 84.363-2.005 4.396-31.186 28.776-39.978 38.368-19.094 43.821-36.314 75.199-42.498 40.255-7.03 42.025-22.079 38.347-27.956 58.876-8.576 42.24-33.25 43.681-44.453 51.566-10.274 10.273-24.993 4.346-36.353 10.175-28.855 10.766-97.02 12.668-124.272.395-14.578-6.284-21.876 3.493-63.025-24.697-21.922-21.798-15.725-31.713-23.313-46.36-12.528-21.604-16.965-7.505-26.623-55.774-2.925 38.97-23.955 18.12-43.337-34.663 0 0-38.121-33.795-40.097-38.141-2.005-4.406 59.143-71.165 85.943-84.363 75.982-34.45 256.267-33.54 340.02 0zM296.16 141.58c41.049 13.903 79.84 58.066 73.434 98.587 0 21.042-1.877 35.267-4.94 44.849 35.05-22.999 19.693-30.393 33.637-52.505 13.16-22.457 15.802-14.236 22.602-44.63-4.07-30.427-8.002-84.344-12.862-100.446-4.248-13.83-24.795-42.576-38.052-60.17-64.646-24.952-192.646-16.952-225.487-.988-13.237 17.485-34.674 47.22-39.02 61.445-4.594 15.252-8.767 67.692-12.62 98.71 3.176 29.505 25.432 42.551 28.751 58.17 3.553 25.145 15.033 33.7 30.96 42.29-3.557-9.779-5.631-24.597-5.631-47.317-6.64-46.89 38.92-86.79 75.82-98.292 10.203-27.082 65.395-24.58 73.407.297zm7.149 113.005c0-28.648-23.48-52.46-41.064-53.892l1.036-42.132c33.97-2.16 30.027-27.032-4.277-28.776-26.36.228-44.863 24.493-4.417 28.726l-.031 42.034c-17.584 0-40.737 24.283-40.737 53.464 2.74-29.282 25.549-44.429 46.39-43.799 20.303.614 38.627 16.252 43.1 44.375zM166.235 113.396c0-7.046-7.68-11.473-13.79-7.95-6.112 3.523-6.112 12.378 0 15.901 6.11 3.523 13.79-.905 13.79-7.95zm-35.998 46.043c-23.392-13.486-23.392-47.383 0-60.87 23.393-13.485 52.792 3.464 52.792 30.435 0 26.972-29.4 43.921-52.792 30.435zm220.212 0c-23.392-13.486-23.392-47.384 0-60.87 23.393-13.485 52.792 3.464 52.792 30.435 0 26.972-29.4 43.921-52.792 30.435zm17.624-46.043c0-7.046-7.68-11.473-13.79-7.95-6.112 3.523-6.112 12.378 0 15.901 6.11 3.523 13.79-.905 13.79-7.95z" fill="currentColor"/></svg>