<svg width="30" height="30" viewBox="0 0 30 30" xmlns="http://www.w3.org/2000/svg"><title>Twitter</title><g fill="currentColor" fill-rule="evenodd"><path d="M23.167 10.708c-.542.25-1.084.375-1.709.458a2.923 2.923 0 0 0 1.292-1.624 5.995 5.995 0 0 1-1.875.708c-.542-.584-1.292-.917-2.167-.917a2.97 2.97 0 0 0-2.958 2.959c0 .25.042.458.083.666a8.444 8.444 0 0 1-6.125-3.083c-.25.458-.416.958-.416 1.5 0 1.042.541 1.917 1.333 2.458-.5 0-.958-.166-1.333-.374v.041c0 1.416 1.041 2.626 2.375 2.916-.25.084-.5.084-.792.084-.208 0-.375 0-.542-.041.375 1.167 1.459 2.04 2.75 2.04a5.905 5.905 0 0 1-3.666 1.251c-.25 0-.459 0-.709-.042a8.413 8.413 0 0 0 4.542 1.333c5.458 0 8.417-4.5 8.417-8.416v-.375c.583-.417 1.083-.959 1.5-1.542z"/><path d="M15 1.25c7.583 0 13.75 6.166 13.75 13.75S22.583 28.75 15 28.75 1.25 22.584 1.25 15 7.417 1.25 15 1.25zM15 0C6.708 0 0 6.709 0 15s6.708 15 15 15 15-6.709 15-15S23.292 0 15 0z"/></g></svg>